Hanif_Shallow_2_5_grf.mot
version=1
nRows=37
nColumns=19
inDegrees=yes
endheader
time	right_ground_force_vx	right_ground_force_vy	right_ground_force_vz	right_ground_force_px	right_ground_force_py	right_ground_force_pz	right_ground_torque_x	right_ground_torque_y	right_ground_torque_z	left_ground_force_vx	left_ground_force_vy	left_ground_force_vz	left_ground_force_px	left_ground_force_py	left_ground_force_pz	left_ground_torque_x	left_ground_torque_y	left_ground_torque_z
3.325000	3.646650	250.933000	55.039200	0.232013	0.000000	-1.432070	-18.514700	1.081460	8.597770	-7.047640	225.116000	-49.038500	0.240573	0.000000	-0.969906	15.167200	-0.915167	9.869120
3.330000	3.525150	247.348000	53.871900	0.231676	0.000000	-1.432220	-18.213800	1.048070	8.378250	-7.234610	221.447000	-48.543800	0.240936	0.000000	-0.971726	15.327900	-0.843019	9.794670
3.335000	3.488760	244.987000	53.859600	0.231634	0.000000	-1.433100	-17.824500	0.946396	8.276620	-7.755370	217.074000	-47.441800	0.241288	0.000000	-0.970681	14.810400	-0.834895	9.687750
3.340000	2.624820	237.578000	53.126600	0.231223	0.000000	-1.432660	-17.398500	0.809444	7.926770	-7.956160	209.931000	-46.211400	0.242782	0.000000	-0.971997	14.610300	-0.789445	9.711100
3.345000	2.066620	233.572000	52.295900	0.232473	0.000000	-1.432350	-17.182900	0.632001	8.072370	-7.873850	204.587000	-45.619800	0.242969	0.000000	-0.973395	14.523900	-0.656372	9.498020
3.350000	1.793120	228.075000	51.717200	0.231863	0.000000	-1.432250	-16.804100	0.601954	7.747380	-7.676120	202.896000	-45.142800	0.242122	0.000000	-0.971972	14.110200	-0.635779	9.228700
3.355000	1.267030	221.184000	51.219500	0.232591	0.000000	-1.432930	-16.151000	0.423780	7.671860	-8.152520	197.669000	-43.815400	0.244352	0.000000	-0.972490	13.861400	-0.532285	9.441300
3.360000	0.612844	216.952000	50.284800	0.232569	0.000000	-1.432600	-15.918300	0.366357	7.519910	-8.067030	191.994000	-43.612500	0.242847	0.000000	-0.972171	13.404300	-0.521949	8.896130
3.365000	0.431734	212.120000	49.173600	0.233255	0.000000	-1.432940	-15.493900	0.182712	7.468090	-7.990980	187.037000	-42.455100	0.243527	0.000000	-0.972930	13.202700	-0.476754	8.795780
3.370000	-0.677907	207.249000	48.527100	0.232888	0.000000	-1.433380	-15.055900	0.093549	7.223170	-8.040240	185.203000	-42.148800	0.243325	0.000000	-0.972643	13.020900	-0.441300	8.667310
3.375000	-1.317880	204.143000	47.397500	0.233825	0.000000	-1.434140	-14.680700	-0.100183	7.276190	-8.054590	182.528000	-40.716600	0.244147	0.000000	-0.972222	12.752400	-0.304986	8.651490
3.380000	-1.701180	198.143000	46.671500	0.235127	0.000000	-1.433350	-14.408100	-0.157684	7.338360	-8.006690	180.537000	-41.242800	0.244054	0.000000	-0.973503	12.848600	-0.330112	8.572720
3.385000	-2.425880	193.861000	46.481700	0.233590	0.000000	-1.432970	-14.175000	-0.288750	6.859400	-8.035500	179.389000	-40.190800	0.245192	0.000000	-0.972446	12.574900	-0.236910	8.691980
3.390000	-2.717270	192.493000	45.381700	0.233872	0.000000	-1.433610	-13.954800	-0.350299	6.846340	-7.930910	175.423000	-40.411600	0.244748	0.000000	-0.972944	12.385700	-0.202487	8.440910
3.395000	-2.792370	187.078000	44.651800	0.234242	0.000000	-1.434130	-13.463500	-0.500967	6.699100	-7.916510	174.197000	-39.630900	0.245762	0.000000	-0.973741	12.437200	-0.144682	8.544580
3.400000	-3.453520	181.742000	43.842400	0.234449	0.000000	-1.433290	-13.235600	-0.611810	6.538220	-7.585810	172.517000	-39.160800	0.245180	0.000000	-0.973633	12.288900	-0.047318	8.328250
3.405000	-3.948690	176.493000	43.102200	0.234369	0.000000	-1.433320	-12.850700	-0.733422	6.318710	-8.021330	169.448000	-38.867100	0.245919	0.000000	-0.974634	12.250600	-0.015785	8.325670
3.410000	-4.545320	171.278000	41.688000	0.234903	0.000000	-1.431540	-12.779900	-0.779276	6.225000	-8.266280	167.457000	-38.253800	0.244807	0.000000	-0.974207	12.036200	0.032919	8.021720
3.415000	-5.154880	167.722000	40.926400	0.234606	0.000000	-1.433570	-12.174500	-0.945755	6.010180	-8.432140	162.722000	-37.307000	0.245366	0.000000	-0.974566	11.761500	0.054179	7.895930
3.420000	-5.546020	165.498000	40.092300	0.234311	0.000000	-1.433950	-11.946600	-1.088740	5.844690	-8.553990	159.680000	-35.728800	0.245812	0.000000	-0.974231	11.489200	0.098287	7.795790
3.425000	-6.544830	161.731000	39.038000	0.234803	0.000000	-1.433570	-11.737200	-1.279870	5.762260	-8.573640	158.153000	-35.503600	0.246453	0.000000	-0.973466	11.258800	0.142790	7.820550
3.430000	-6.887600	160.166000	38.212700	0.235822	0.000000	-1.434860	-11.415500	-1.349290	5.858980	-9.170440	155.085000	-34.282800	0.245819	0.000000	-0.973668	11.081800	0.151676	7.562760
3.435000	-8.199880	155.462000	36.876700	0.235397	0.000000	-1.432470	-11.451200	-1.535130	5.591450	-9.838100	153.449000	-33.395300	0.245990	0.000000	-0.975597	11.271300	0.200409	7.503220
3.440000	-9.526890	154.510000	36.025100	0.235687	0.000000	-1.434400	-11.085800	-1.596670	5.600500	-10.235100	152.412000	-32.691000	0.246394	0.000000	-0.974047	10.959300	0.296408	7.488800
3.445000	-9.634120	153.542000	35.820300	0.236808	0.000000	-1.433080	-11.213100	-1.743590	5.716240	-11.418500	153.502000	-32.301500	0.246236	0.000000	-0.972777	10.860700	0.277438	7.520860
3.450000	-10.594200	152.409000	35.069000	0.234969	0.000000	-1.434540	-10.907400	-1.739770	5.385710	-11.428300	152.647000	-32.030700	0.247150	0.000000	-0.973290	10.880900	0.293434	7.621140
3.455000	-10.315600	150.573000	34.976100	0.235878	0.000000	-1.432120	-11.138100	-1.818290	5.448450	-12.042800	153.747000	-31.298300	0.244533	0.000000	-0.972836	10.889100	0.295491	7.241560
3.460000	-11.889700	154.597000	34.614000	0.234990	0.000000	-1.435510	-10.911400	-1.877700	5.447750	-12.099900	156.091000	-31.849300	0.245059	0.000000	-0.971799	10.886700	0.359916	7.422550
3.465000	-11.442100	155.324000	34.244400	0.234617	0.000000	-1.435610	-10.940300	-1.887290	5.399610	-12.814200	157.762000	-32.262500	0.243950	0.000000	-0.973111	11.223400	0.314964	7.342990
3.470000	-12.629000	155.271000	34.395500	0.234458	0.000000	-1.436320	-10.837300	-1.852730	5.397360	-13.163700	158.526000	-32.254900	0.244279	0.000000	-0.972851	11.240100	0.337232	7.428490
3.475000	-12.559000	156.605000	33.925600	0.233067	0.000000	-1.436000	-10.985700	-1.713830	5.240730	-13.468800	159.208000	-32.514000	0.242137	0.000000	-0.970674	10.947900	0.229240	7.127640
3.480000	-12.954800	160.015000	34.121900	0.232476	0.000000	-1.436210	-11.182000	-1.828860	5.235770	-13.921800	159.833000	-32.288700	0.241462	0.000000	-0.969954	10.878800	0.234630	7.038340
3.485000	-12.782000	162.196000	34.459900	0.232155	0.000000	-1.437230	-11.176300	-1.715400	5.273160	-13.336600	161.527000	-32.613400	0.239453	0.000000	-0.968971	10.820700	0.174093	6.775070
3.490000	-12.818700	165.069000	34.121200	0.231501	0.000000	-1.435230	-11.702300	-1.723570	5.253340	-13.686700	166.956000	-33.541500	0.238521	0.000000	-0.968472	11.103500	0.082700	6.854310
3.495000	-13.010200	168.389000	34.351000	0.230524	0.000000	-1.438140	-11.442300	-1.738840	5.179290	-13.261700	174.067000	-33.779500	0.236726	0.000000	-0.966473	11.208400	-0.015905	6.800000
3.500000	-13.210400	173.522000	34.720400	0.230792	0.000000	-1.437560	-11.900700	-1.657760	5.406300	-12.721900	179.914000	-34.939000	0.236750	0.000000	-0.966042	11.493200	-0.048643	7.026410
3.505000	-11.899600	178.931000	35.352800	0.230237	0.000000	-1.437460	-12.273700	-1.728820	5.441110	-12.404800	184.252000	-35.336200	0.235364	0.000000	-0.965987	11.749900	-0.114909	6.927490
